<?xml version="1.0" encoding="iso-8859-1"?>
<!-- Generator: Adobe Illustrator 19.0.0, SVG Export Plug-In . SVG Version: 6.00 Build 0)  -->
<svg version="1.1" id="Layer_1" xmlns="http://www.w3.org/2000/svg" xmlns:xlink="http://www.w3.org/1999/xlink" x="0px" y="0px"
	 viewBox="0 0 512.001 512.001" style="enable-background:new 0 0 512.001 512.001;" xml:space="preserve">
<path style="fill:#EFF2FA;" d="M466.102,483.049H45.898c-19.64,0-35.562-15.922-35.562-35.562V102.404
	c0-19.64,15.922-35.562,35.562-35.562h420.203c19.64,0,35.562,15.922,35.562,35.562v345.085
	C501.662,467.129,485.742,483.049,466.102,483.049z"/>
<path style="fill:#FF6464;" d="M501.662,140.412H10.337V95.9c0-16.048,13.01-29.057,29.057-29.057h433.212
	c16.048,0,29.057,13.01,29.057,29.057L501.662,140.412L501.662,140.412z"/>
<path style="fill:#C7CFE2;" d="M71.803,101.866h-3.002c-6.631,0-12.008-5.377-12.008-12.008V41.826
	c0-6.631,5.377-12.008,12.008-12.008h3.002c6.631,0,12.008,5.377,12.008,12.008v48.032C83.811,96.49,78.434,101.866,71.803,101.866z
	"/>
<path style="fill:#AFB9D2;" d="M70.302,74.848c-7.461,0-13.509-6.048-13.509-13.509v27.018c0,7.461,6.048,13.509,13.509,13.509
	c7.461,0,13.509-6.048,13.509-13.509V61.339C83.811,68.8,77.763,74.848,70.302,74.848z"/>
<path style="fill:#C7CFE2;" d="M440.547,101.866h-3.002c-6.631,0-12.008-5.377-12.008-12.008V41.826
	c0-6.631,5.377-12.008,12.008-12.008h3.002c6.631,0,12.008,5.377,12.008,12.008v48.032
	C452.555,96.49,447.178,101.866,440.547,101.866z"/>
<path style="fill:#AFB9D2;" d="M439.046,74.848c-7.461,0-13.509-6.048-13.509-13.509v27.018c0,7.461,6.048,13.509,13.509,13.509
	s13.509-6.048,13.509-13.509V61.339C452.555,68.8,446.507,74.848,439.046,74.848z"/>
<path d="M511.413,139.413L511.413,139.413L511.413,139.413l-0.075-40.027c-0.02-10.522-4.16-20.431-11.657-27.899
	c-7.48-7.452-17.374-11.552-27.868-11.552c-0.025,0-0.051,0-0.076,0l-8.506,0.016L463.2,43.44
	c-0.024-12.943-10.573-23.472-23.56-23.472c-12.967,0.024-23.496,10.593-23.472,23.56l0.031,16.511L94.987,60.643l-0.031-16.511
	C94.933,31.189,84.385,20.66,71.398,20.66c-12.967,0.024-23.496,10.593-23.472,23.56l0.031,16.511l-8.506,0.016
	C17.657,60.788-0.041,78.553,0,100.347L0.663,452.58c0.041,21.77,17.764,39.453,39.526,39.452c0.024,0,0.051,0,0.075,0
	l432.286-0.813c21.794-0.041,39.492-17.806,39.451-39.601L511.413,139.413z M439.686,34.978c4.681,0,8.497,3.809,8.506,8.49
	l0.045,24.001c0,0.005-0.001,0.01-0.001,0.015c0,0.005,0.001,0.01,0.001,0.015l0.045,24.001c0.004,2.271-0.877,4.409-2.481,6.019
	c-1.604,1.609-3.737,2.499-6.01,2.503l-0.017,7.505v-7.505c-4.681,0-8.496-3.809-8.505-8.49l-0.09-48.032
	C431.171,38.809,434.979,34.986,439.686,34.978z M65.416,38.173c1.604-1.61,3.738-2.499,6.026-2.503c4.681,0,8.496,3.809,8.505,8.49
	l0.09,48.032c0.009,4.69-3.8,8.513-8.49,8.522l-0.017,7.505v-7.505c-4.681,0-8.497-3.809-8.506-8.49l-0.043-24.002
	c0-0.005,0.001-0.01,0.001-0.015c0-0.005-0.001-0.01-0.001-0.015l-0.045-24.001C62.932,41.92,63.813,39.782,65.416,38.173z
	 M472.52,476.209l-432.286,0.813c-0.016,0-0.03,0-0.046,0c-13.497,0-24.49-10.967-24.516-24.47l-0.572-304.702l384.755-0.723
	c4.145-0.008,7.499-3.374,7.491-7.519c-0.008-4.14-3.366-7.491-7.505-7.491c-0.005,0-0.01,0-0.015,0L15.07,132.84l-0.06-32.521
	c-0.012-6.513,2.536-12.664,7.176-17.321c4.639-4.657,10.781-7.229,17.294-7.241l8.506-0.016l0.031,16.511
	c0.024,12.943,10.573,23.472,23.516,23.472c0.005,0,0.04,0,0.045,0c12.967-0.024,23.496-10.593,23.472-23.56l-0.031-16.511
	l321.213-0.603l0.031,16.511c0.024,12.943,10.573,23.472,23.515,23.472c0.005,0,0.04,0,0.045,0
	c6.281-0.012,12.181-2.469,16.615-6.919c4.433-4.45,6.869-10.36,6.857-16.641l-0.031-16.511l8.506-0.016c0.016,0,0.031,0,0.047,0
	c6.495,0,12.629,2.548,17.274,7.176c4.657,4.639,7.229,10.781,7.241,17.294l0.061,32.522l-16.511,0.031
	c-4.145,0.008-7.499,3.374-7.491,7.519c0.008,4.141,3.366,7.491,7.505,7.491c0.005,0,0.01,0,0.015,0l16.511-0.031l0.572,304.701
	C497.015,465.165,486.038,476.184,472.52,476.209z"/>
<path d="M447.872,132.027c-0.005,0-0.01,0-0.015,0l-16.011,0.03c-4.145,0.008-7.499,3.374-7.491,7.519
	c0.008,4.14,3.366,7.491,7.505,7.491c0.005,0,0.01,0,0.015,0l16.011-0.03c4.145-0.008,7.499-3.374,7.491-7.519
	C455.368,135.377,452.009,132.027,447.872,132.027z"/>
<path d="M200.464,254.134l44.704-44.872c0.022-0.022,0.04-0.046,0.062-0.069c0.15-0.154,0.296-0.313,0.432-0.48
	c0.077-0.094,0.145-0.193,0.216-0.291c0.074-0.099,0.151-0.196,0.219-0.299c0.075-0.112,0.14-0.229,0.208-0.344
	c0.057-0.095,0.116-0.188,0.169-0.286c0.062-0.116,0.114-0.235,0.169-0.353c0.049-0.104,0.101-0.207,0.145-0.313
	c0.047-0.114,0.085-0.231,0.126-0.347c0.041-0.115,0.085-0.229,0.12-0.347c0.035-0.116,0.061-0.234,0.09-0.352
	c0.03-0.12,0.063-0.239,0.087-0.361c0.026-0.135,0.042-0.27,0.061-0.406c0.015-0.107,0.035-0.212,0.046-0.321
	c0.024-0.246,0.036-0.493,0.036-0.74l0,0c0-0.001,0-0.001,0-0.002c-0.001-0.246-0.014-0.492-0.039-0.737
	c-0.011-0.114-0.033-0.225-0.049-0.338c-0.019-0.129-0.034-0.258-0.06-0.386c-0.026-0.129-0.062-0.254-0.094-0.381
	c-0.028-0.11-0.052-0.221-0.085-0.33c-0.038-0.125-0.085-0.245-0.129-0.367c-0.039-0.108-0.075-0.218-0.119-0.324
	c-0.048-0.115-0.103-0.224-0.156-0.336c-0.052-0.11-0.101-0.221-0.159-0.329c-0.058-0.107-0.123-0.209-0.186-0.313
	c-0.063-0.106-0.123-0.213-0.192-0.316c-0.078-0.116-0.165-0.226-0.249-0.338c-0.063-0.083-0.121-0.17-0.188-0.251
	c-0.157-0.191-0.323-0.375-0.498-0.549c-0.001-0.001-0.001-0.002-0.002-0.002c-0.021-0.021-0.043-0.037-0.064-0.057
	c-0.156-0.152-0.316-0.299-0.485-0.437c-0.084-0.069-0.173-0.129-0.259-0.193c-0.109-0.082-0.217-0.166-0.331-0.242
	c-0.103-0.069-0.21-0.129-0.316-0.192c-0.104-0.062-0.206-0.127-0.313-0.185c-0.109-0.058-0.22-0.107-0.331-0.159
	c-0.111-0.052-0.22-0.107-0.334-0.154c-0.109-0.045-0.22-0.082-0.331-0.121c-0.12-0.043-0.238-0.088-0.36-0.125
	c-0.112-0.034-0.226-0.059-0.339-0.087c-0.124-0.031-0.246-0.065-0.372-0.09c-0.131-0.026-0.263-0.042-0.395-0.06
	c-0.11-0.016-0.218-0.036-0.329-0.047c-0.208-0.021-0.418-0.029-0.627-0.032c-0.036,0-0.071-0.005-0.107-0.005
	c-0.004,0-0.007,0-0.01,0c-0.003,0-0.005,0-0.008,0l-88.05,0.165c-4.145,0.008-7.499,3.374-7.491,7.519
	c0.008,4.141,3.366,7.491,7.505,7.491c0.005,0,0.01,0,0.015,0l69.935-0.131l-43.148,43.31c-0.022,0.022-0.04,0.046-0.062,0.069
	c-0.15,0.154-0.296,0.313-0.432,0.48c-0.077,0.094-0.145,0.193-0.216,0.291c-0.074,0.099-0.151,0.196-0.219,0.299
	c-0.075,0.112-0.14,0.229-0.208,0.344c-0.057,0.095-0.116,0.188-0.169,0.286c-0.062,0.116-0.114,0.235-0.169,0.353
	c-0.049,0.104-0.101,0.207-0.145,0.313c-0.047,0.114-0.085,0.231-0.126,0.347c-0.041,0.115-0.085,0.229-0.12,0.347
	c-0.035,0.115-0.06,0.233-0.089,0.35c-0.03,0.121-0.064,0.24-0.088,0.363c-0.026,0.133-0.042,0.267-0.06,0.401
	c-0.015,0.108-0.036,0.215-0.046,0.324c-0.024,0.246-0.036,0.493-0.036,0.74l0,0c0,0.001,0,0.001,0,0.002
	c0.001,0.246,0.014,0.492,0.039,0.737c0.011,0.113,0.033,0.222,0.049,0.333c0.019,0.131,0.034,0.262,0.061,0.392
	c0.025,0.126,0.06,0.248,0.092,0.372c0.029,0.113,0.054,0.227,0.088,0.339c0.037,0.121,0.083,0.238,0.126,0.357
	c0.04,0.112,0.077,0.224,0.123,0.335c0.046,0.11,0.1,0.215,0.15,0.322c0.054,0.115,0.105,0.23,0.166,0.343
	c0.054,0.101,0.117,0.197,0.175,0.296c0.067,0.111,0.13,0.224,0.203,0.333c0.072,0.107,0.153,0.209,0.23,0.312
	c0.069,0.092,0.134,0.187,0.208,0.277c0.156,0.19,0.321,0.372,0.495,0.545c0.001,0.001,0.003,0.003,0.004,0.004
	c0.038,0.038,0.08,0.07,0.119,0.107c0.138,0.132,0.278,0.263,0.426,0.384c0.094,0.077,0.192,0.144,0.288,0.215
	c0.1,0.074,0.197,0.151,0.301,0.22c0.11,0.074,0.225,0.138,0.338,0.205c0.097,0.058,0.191,0.118,0.291,0.171
	c0.115,0.061,0.232,0.113,0.349,0.168c0.105,0.049,0.208,0.101,0.315,0.146c0.113,0.047,0.229,0.085,0.344,0.126
	c0.116,0.042,0.23,0.086,0.348,0.121c0.114,0.035,0.231,0.06,0.346,0.089c0.121,0.031,0.241,0.064,0.365,0.089
	c0.131,0.026,0.264,0.042,0.396,0.061c0.11,0.016,0.218,0.036,0.329,0.047c0.243,0.024,0.486,0.036,0.73,0.037
	c0.003,0,0.005,0,0.008,0c0.049-0.003,0.102,0,0.153,0c39.94,0,72.471,32.455,72.546,72.412
	c0.075,40.003-32.408,72.609-72.412,72.684c-19.122,0.045-37.15-7.294-50.816-20.637c-2.966-2.896-7.718-2.84-10.613,0.126
	c-2.896,2.966-2.839,7.717,0.126,10.613c16.455,16.067,38.169,24.908,61.164,24.908c0.055,0,0.112,0,0.167,0
	c48.28-0.091,87.484-39.443,87.393-87.723c-0.044-23.387-9.193-45.358-25.762-61.865
	C233.273,265.592,217.557,257.349,200.464,254.134z"/>
<path d="M351.428,203.756c-0.001-0.246-0.014-0.492-0.039-0.737c-0.011-0.114-0.033-0.225-0.049-0.338
	c-0.019-0.129-0.034-0.258-0.06-0.386c-0.026-0.129-0.062-0.254-0.094-0.381c-0.028-0.11-0.052-0.221-0.085-0.33
	c-0.038-0.125-0.085-0.245-0.129-0.367c-0.039-0.108-0.075-0.218-0.119-0.324c-0.048-0.115-0.103-0.224-0.156-0.336
	c-0.052-0.11-0.101-0.221-0.159-0.329c-0.058-0.107-0.123-0.209-0.186-0.313c-0.063-0.106-0.123-0.213-0.192-0.316
	c-0.078-0.116-0.165-0.226-0.249-0.338c-0.063-0.083-0.121-0.17-0.188-0.251c-0.157-0.191-0.323-0.375-0.498-0.549
	c-0.001-0.001-0.001-0.002-0.002-0.002c-0.02-0.02-0.042-0.037-0.063-0.057c-0.156-0.152-0.317-0.299-0.486-0.438
	c-0.083-0.068-0.17-0.126-0.255-0.19c-0.111-0.083-0.22-0.169-0.336-0.246c-0.101-0.068-0.207-0.126-0.311-0.189
	c-0.106-0.063-0.21-0.129-0.319-0.188c-0.107-0.057-0.217-0.105-0.325-0.156c-0.113-0.053-0.224-0.109-0.34-0.157
	c-0.107-0.044-0.216-0.08-0.325-0.119c-0.122-0.044-0.242-0.09-0.367-0.128c-0.11-0.033-0.222-0.057-0.333-0.085
	c-0.126-0.032-0.25-0.066-0.378-0.092c-0.129-0.025-0.259-0.041-0.389-0.059c-0.111-0.016-0.221-0.037-0.334-0.047
	c-0.207-0.021-0.415-0.028-0.623-0.031c-0.037-0.001-0.073-0.006-0.11-0.006c-0.004,0-0.007,0-0.011,0
	c-0.249,0-0.498,0.014-0.746,0.039c-0.099,0.01-0.196,0.029-0.294,0.043c-0.144,0.02-0.289,0.038-0.432,0.067
	c-0.116,0.023-0.228,0.055-0.341,0.084c-0.124,0.031-0.248,0.059-0.371,0.096c-0.111,0.034-0.218,0.076-0.327,0.115
	c-0.122,0.044-0.246,0.085-0.366,0.135c-0.1,0.042-0.195,0.091-0.292,0.136c-0.125,0.059-0.25,0.115-0.372,0.18
	c-0.091,0.049-0.178,0.105-0.267,0.158c-0.121,0.072-0.243,0.141-0.361,0.22c-0.096,0.065-0.187,0.137-0.28,0.207
	c-0.103,0.076-0.208,0.148-0.307,0.23c-0.165,0.136-0.321,0.281-0.474,0.43c-0.023,0.023-0.049,0.042-0.073,0.066l-39.951,40.102
	c-2.925,2.937-2.916,7.688,0.02,10.614c1.465,1.459,3.38,2.188,5.296,2.188c1.925,0,3.851-0.736,5.317-2.208l27.163-27.266
	l0.372,198.024c0.008,4.141,3.366,7.491,7.505,7.491c0.005,0,0.01,0,0.015,0c4.145-0.008,7.499-3.374,7.491-7.519L351.428,203.756
	C351.428,203.757,351.428,203.757,351.428,203.756z"/>
<g>
</g>
<g>
</g>
<g>
</g>
<g>
</g>
<g>
</g>
<g>
</g>
<g>
</g>
<g>
</g>
<g>
</g>
<g>
</g>
<g>
</g>
<g>
</g>
<g>
</g>
<g>
</g>
<g>
</g>
</svg>
